<svg width="115" height="24" viewBox="0 0 115 24" fill="none" xmlns="http://www.w3.org/2000/svg">
<g clip-path="url(#clip0_903_1183)">
<path d="M0.741211 11.5796V9.86657C1.72416 9.86657 2.40598 9.67054 2.78666 9.2785C3.16734 8.88645 3.35768 8.25293 3.35768 7.37793V5.49441C3.35768 4.44327 3.50257 3.60236 3.79234 2.97168C4.0878 2.33532 4.49689 1.8552 5.01962 1.53134C5.54803 1.20748 6.17303 0.991566 6.89462 0.883611C7.61621 0.775657 8.40598 0.72168 9.26393 0.72168V3.43191C8.59348 3.43191 8.08212 3.51998 7.72984 3.69611C7.38325 3.86657 7.14746 4.13361 7.02246 4.49725C6.89746 4.8552 6.83496 5.30975 6.83496 5.86088V8.34952C6.83496 8.78134 6.75541 9.19327 6.59632 9.58532C6.43723 9.97168 6.14178 10.3154 5.70996 10.6166C5.27814 10.912 4.66166 11.1478 3.86053 11.324C3.05939 11.4944 2.01962 11.5796 0.741211 11.5796ZM9.26393 22.2927C8.40598 22.2927 7.61621 22.2387 6.89462 22.1308C6.17303 22.0228 5.54803 21.8069 5.01962 21.4831C4.49689 21.1592 4.0878 20.6791 3.79234 20.0427C3.50257 19.412 3.35768 18.5711 3.35768 17.52V15.6279C3.35768 14.7529 3.16734 14.1194 2.78666 13.7274C2.40598 13.3353 1.72416 13.1393 0.741211 13.1393V11.4262C2.01962 11.4262 3.05939 11.5143 3.86053 11.6904C4.66166 11.8609 5.27814 12.0967 5.70996 12.3978C6.14178 12.6933 6.43723 13.037 6.59632 13.4291C6.75541 13.8154 6.83496 14.2274 6.83496 14.6649V17.1535C6.83496 17.699 6.89746 18.1507 7.02246 18.5086C7.14746 18.8723 7.38325 19.1393 7.72984 19.3098C8.08212 19.4859 8.59348 19.574 9.26393 19.574V22.2927ZM0.741211 13.1393V9.86657H3.80087V13.1393H0.741211ZM114.006 11.4262V13.1393C113.029 13.1393 112.347 13.3353 111.961 13.7274C111.58 14.1194 111.39 14.7529 111.39 15.6279V17.52C111.39 18.5711 111.242 19.412 110.947 20.0427C110.657 20.6791 110.248 21.1592 109.719 21.4831C109.197 21.8069 108.575 22.0228 107.853 22.1308C107.137 22.2387 106.347 22.2927 105.484 22.2927V19.574C106.154 19.574 106.663 19.4859 107.009 19.3098C107.362 19.1393 107.6 18.8723 107.725 18.5086C107.85 18.1507 107.913 17.699 107.913 17.1535V14.6649C107.913 14.2274 107.992 13.8154 108.151 13.4291C108.31 13.037 108.606 12.6933 109.038 12.3978C109.469 12.0967 110.086 11.8609 110.887 11.6904C111.688 11.5143 112.728 11.4262 114.006 11.4262ZM105.484 0.72168C106.347 0.72168 107.137 0.775657 107.853 0.883611C108.575 0.991566 109.197 1.20748 109.719 1.53134C110.248 1.8552 110.657 2.33532 110.947 2.97168C111.242 3.60236 111.39 4.44327 111.39 5.49441V7.37793C111.39 8.25293 111.58 8.88645 111.961 9.2785C112.347 9.67054 113.029 9.86657 114.006 9.86657V11.5796C112.728 11.5796 111.688 11.4944 110.887 11.324C110.086 11.1478 109.469 10.912 109.038 10.6166C108.606 10.3154 108.31 9.97168 108.151 9.58532C107.992 9.19327 107.913 8.78134 107.913 8.34952V5.86088C107.913 5.30975 107.85 4.8552 107.725 4.49725C107.6 4.13361 107.362 3.86657 107.009 3.69611C106.663 3.51998 106.154 3.43191 105.484 3.43191V0.72168ZM114.006 9.86657V13.1393H110.947V9.86657H114.006Z" fill="white"/>
<path d="M11.3369 18.5V1.04541H18.2232C19.5471 1.04541 20.6749 1.29826 21.6067 1.80394C22.5386 2.30394 23.2488 2.99996 23.7374 3.892C24.2317 4.77837 24.4789 5.8011 24.4789 6.96019C24.4789 8.11928 24.2289 9.14201 23.7289 10.0284C23.2289 10.9148 22.5045 11.6051 21.5556 12.0994C20.6124 12.5937 19.4704 12.8409 18.1295 12.8409H13.7403V9.88348H17.5329C18.2431 9.88348 18.8283 9.76132 19.2886 9.51701C19.7545 9.26701 20.1011 8.92326 20.3283 8.48576C20.5613 8.04257 20.6778 7.53405 20.6778 6.96019C20.6778 6.38064 20.5613 5.87496 20.3283 5.44314C20.1011 5.00564 19.7545 4.66757 19.2886 4.42894C18.8227 4.18462 18.2317 4.06246 17.5158 4.06246H15.0272V18.5H11.3369ZM30.4384 1.04541V18.5H26.8077V1.04541H30.4384ZM37.0798 18.7472C36.2445 18.7472 35.5002 18.6023 34.8468 18.3125C34.1934 18.017 33.6763 17.5824 33.2957 17.0085C32.9207 16.429 32.7332 15.7074 32.7332 14.8438C32.7332 14.1165 32.8667 13.5057 33.1337 13.0114C33.4008 12.517 33.7644 12.1193 34.2246 11.8182C34.6849 11.517 35.2076 11.2898 35.7928 11.1364C36.3837 10.983 37.0031 10.875 37.6508 10.8125C38.4121 10.733 39.0258 10.6591 39.4917 10.5909C39.9576 10.517 40.2957 10.4091 40.5059 10.267C40.7161 10.125 40.8212 9.91473 40.8212 9.63632V9.58519C40.8212 9.04541 40.6508 8.6278 40.3099 8.33235C39.9746 8.03689 39.4974 7.88916 38.8781 7.88916C38.2246 7.88916 37.7048 8.03405 37.3184 8.32382C36.932 8.60791 36.6763 8.96587 36.5513 9.39769L33.1934 9.12496C33.3638 8.32951 33.6991 7.64201 34.1991 7.06246C34.6991 6.47723 35.344 6.02837 36.1337 5.71587C36.9292 5.39769 37.8496 5.2386 38.8951 5.2386C39.6224 5.2386 40.3184 5.32382 40.9832 5.49428C41.6536 5.66473 42.2474 5.92894 42.7644 6.28689C43.2871 6.64485 43.6991 7.10507 44.0002 7.66757C44.3013 8.22439 44.4519 8.89201 44.4519 9.67041V18.5H41.0087V16.6847H40.9065C40.6962 17.0938 40.415 17.4545 40.0627 17.767C39.7104 18.0739 39.2871 18.3153 38.7928 18.4915C38.2985 18.6619 37.7275 18.7472 37.0798 18.7472ZM38.1195 16.2415C38.6536 16.2415 39.1252 16.1364 39.5343 15.9261C39.9434 15.7102 40.2644 15.4205 40.4974 15.0568C40.7303 14.6932 40.8468 14.2812 40.8468 13.821V12.4318C40.7332 12.5057 40.5769 12.5739 40.3781 12.6364C40.1849 12.6932 39.9661 12.7472 39.7218 12.7983C39.4775 12.8437 39.2332 12.8864 38.9888 12.9261C38.7445 12.9602 38.5229 12.9915 38.3241 13.0199C37.8979 13.0824 37.5258 13.1818 37.2076 13.3182C36.8894 13.4545 36.6423 13.6392 36.4661 13.8722C36.29 14.0994 36.2019 14.3835 36.2019 14.7244C36.2019 15.2188 36.3809 15.5966 36.7388 15.858C37.1025 16.1136 37.5627 16.2415 38.1195 16.2415ZM49.0414 23.4091C48.5812 23.4091 48.1494 23.3722 47.7459 23.2983C47.3482 23.2301 47.0187 23.142 46.7573 23.0341L47.5755 20.3239C48.0016 20.4545 48.3852 20.5256 48.7261 20.5369C49.0727 20.5483 49.3709 20.4688 49.6209 20.2983C49.8766 20.1278 50.084 19.8381 50.2431 19.429L50.4562 18.875L45.7602 5.40905H49.5783L52.2886 15.0227H52.4249L55.1607 5.40905H59.0045L53.9164 19.9148C53.6721 20.6193 53.3397 21.233 52.9192 21.7557C52.5045 22.2841 51.9789 22.6903 51.3425 22.9744C50.7062 23.2642 49.9391 23.4091 49.0414 23.4091Z" fill="#FC0B56"/>
<path d="M67.1182 18.5H60.9307V1.04541H67.1693C68.925 1.04541 70.4364 1.39485 71.7034 2.09371C72.9705 2.78689 73.9449 3.78405 74.6267 5.08519C75.3142 6.38632 75.658 7.94314 75.658 9.75564C75.658 11.5739 75.3142 13.1364 74.6267 14.4432C73.9449 15.75 72.9648 16.7528 71.6864 17.4517C70.4137 18.1506 68.8909 18.5 67.1182 18.5ZM64.621 15.3381H66.9648C68.0557 15.3381 68.9733 15.1449 69.7176 14.7585C70.4676 14.3665 71.0301 13.7614 71.4051 12.9432C71.7858 12.1193 71.9762 11.0568 71.9762 9.75564C71.9762 8.46587 71.7858 7.41189 71.4051 6.59371C71.0301 5.77553 70.4705 5.17326 69.7262 4.78689C68.9818 4.40053 68.0642 4.20735 66.9733 4.20735H64.621V15.3381ZM84.2894 18.7557C82.9428 18.7557 81.7837 18.483 80.8121 17.9375C79.8462 17.3864 79.1019 16.608 78.5791 15.6023C78.0564 14.5909 77.7951 13.3949 77.7951 12.0142C77.7951 10.6676 78.0564 9.48576 78.5791 8.46871C79.1019 7.45166 79.8377 6.65905 80.7865 6.09087C81.7411 5.52269 82.8604 5.2386 84.1445 5.2386C85.0081 5.2386 85.8121 5.3778 86.5564 5.65621C87.3064 5.92894 87.9598 6.34087 88.5166 6.89201C89.0791 7.44314 89.5166 8.13632 89.8291 8.97155C90.1416 9.8011 90.2979 10.7727 90.2979 11.8864V12.8835H79.2439V10.6335H86.8803C86.8803 10.1108 86.7666 9.64769 86.5394 9.24428C86.3121 8.84087 85.9968 8.52553 85.5934 8.29826C85.1956 8.0653 84.7326 7.94882 84.2041 7.94882C83.653 7.94882 83.1644 8.07666 82.7382 8.33235C82.3178 8.58235 81.9882 8.92041 81.7496 9.34655C81.511 9.76701 81.3888 10.2358 81.3831 10.7528V12.892C81.3831 13.5398 81.5024 14.0994 81.7411 14.571C81.9854 15.0426 82.3291 15.4062 82.7723 15.6619C83.2155 15.9176 83.7411 16.0455 84.349 16.0455C84.7524 16.0455 85.1218 15.9886 85.457 15.875C85.7922 15.7614 86.0791 15.5909 86.3178 15.3636C86.5564 15.1364 86.7382 14.858 86.8632 14.5284L90.2212 14.75C90.0507 15.5568 89.7013 16.2614 89.1729 16.8636C88.6502 17.4602 87.974 17.9261 87.1445 18.2614C86.3206 18.5909 85.3689 18.7557 84.2894 18.7557ZM104.521 5.40905L99.9435 18.5H95.8526L91.2759 5.40905H95.1111L97.8299 14.7756H97.9662L100.677 5.40905H104.521Z" fill="#8948EE"/>
</g>
<defs>
<clipPath id="clip0_903_1183">
<rect width="115" height="24" fill="white"/>
</clipPath>
</defs>
</svg>
