<svg width="40" height="40" viewBox="0 0 40 40" fill="none" xmlns="http://www.w3.org/2000/svg">
<rect width="40" height="40" rx="20" fill="#272727"/>
<path d="M11.25 14.1668C11.25 13.9089 11.3524 13.6617 11.5348 13.4793C11.7171 13.297 11.9644 13.1946 12.2222 13.1946H27.7778C28.0356 13.1946 28.2829 13.297 28.4652 13.4793C28.6476 13.6617 28.75 13.9089 28.75 14.1668C28.75 14.4246 28.6476 14.6719 28.4652 14.8542C28.2829 15.0365 28.0356 15.139 27.7778 15.139H12.2222C11.9644 15.139 11.7171 15.0365 11.5348 14.8542C11.3524 14.6719 11.25 14.4246 11.25 14.1668ZM11.25 19.9999C11.25 19.7421 11.3524 19.4948 11.5348 19.3125C11.7171 19.1302 11.9644 19.0277 12.2222 19.0277H27.7778C28.0356 19.0277 28.2829 19.1302 28.4652 19.3125C28.6476 19.4948 28.75 19.7421 28.75 19.9999C28.75 20.2578 28.6476 20.5051 28.4652 20.6874C28.2829 20.8697 28.0356 20.9721 27.7778 20.9721H12.2222C11.9644 20.9721 11.7171 20.8697 11.5348 20.6874C11.3524 20.5051 11.25 20.2578 11.25 19.9999ZM12.2222 24.8609C11.9644 24.8609 11.7171 24.9633 11.5348 25.1457C11.3524 25.328 11.25 25.5753 11.25 25.8331C11.25 26.091 11.3524 26.3382 11.5348 26.5206C11.7171 26.7029 11.9644 26.8053 12.2222 26.8053H27.7778C28.0356 26.8053 28.2829 26.7029 28.4652 26.5206C28.6476 26.3382 28.75 26.091 28.75 25.8331C28.75 25.5753 28.6476 25.328 28.4652 25.1457C28.2829 24.9633 28.0356 24.8609 27.7778 24.8609H12.2222Z" fill="white"/>
</svg>
